<svg xmlns="http://www.w3.org/2000/svg" xmlns:xlink="http://www.w3.org/1999/xlink" width="89" height="20" viewBox="0 0 89 20"><defs><clipPath id="clip-Custom_Size_2"><rect width="89" height="20"></rect></clipPath></defs><g id="Custom_Size_2" data-name="Custom Size &#x2013; 2" clip-path="url(#clip-Custom_Size_2)"><g id="heimstaden-logo" transform="translate(-2.6 1.299)"><g id="Group_1" data-name="Group 1" transform="translate(2.6 2)"><path id="Path_1" data-name="Path 1" d="M13.075,7.6V19.632H10.563V14.583H5.112v5.049H2.6V7.6H5.112v4.785h5.451V7.6Z" transform="translate(-2.6 -6.897)" fill="#606060"></path><path id="Path_2" data-name="Path 2" d="M104.239,38.192a3.581,3.581,0,0,1-3.881,3.052c-2.55,0-4.258-1.859-4.258-4.559a4.26,4.26,0,0,1,4.208-4.584c2.562,0,3.982,1.784,3.982,4.346v.741h-5.84c.075,1.319.829,2.1,1.9,2.1a1.489,1.489,0,0,0,1.62-1.093ZM98.512,35.73H101.9a1.536,1.536,0,0,0-1.57-1.645A1.8,1.8,0,0,0,98.512,35.73Z" transform="translate(-84.356 -28.319)" fill="#606060"></path><path id="Path_3" data-name="Path 3" d="M170.144,5.188A1.394,1.394,0,0,1,168.7,3.794a1.439,1.439,0,0,1,2.876,0A1.391,1.391,0,0,1,170.144,5.188Zm1.218,9.9h-2.424V6.331h2.424Z" transform="translate(-147.838 -2.35)" fill="#606060"></path><path id="Path_4" data-name="Path 4" d="M213.246,32.013c1.809,0,2.876,1.256,2.876,3.228v5.727H213.7V35.755c0-.942-.414-1.57-1.256-1.57a1.359,1.359,0,0,0-1.356,1.13v5.639h-2.449V35.743c0-.942-.389-1.57-1.231-1.57a1.363,1.363,0,0,0-1.369,1.13v5.639H203.6V32.188h2.424v.728A2.758,2.758,0,0,1,208.235,32a2.872,2.872,0,0,1,2.349,1.118A3.489,3.489,0,0,1,213.246,32.013Z" transform="translate(-178.354 -28.232)" fill="#606060"></path><path id="Path_5" data-name="Path 5" d="M314.286,38.455a1.408,1.408,0,0,0,1.47.955c.741,0,1.231-.289,1.231-.867,0-.389-.276-.59-.879-.741l-1.758-.389c-1.331-.314-2.273-1-2.273-2.474,0-1.708,1.532-2.839,3.492-2.839,2.211,0,3.429,1.055,3.718,2.7h-2.311a1.274,1.274,0,0,0-1.369-.867c-.59,0-1.156.276-1.156.829,0,.352.239.553.779.691l1.809.414c1.532.377,2.336,1.218,2.336,2.55,0,1.784-1.545,2.839-3.58,2.839-2.135,0-3.642-1.017-3.894-2.8Z" transform="translate(-273.052 -28.319)" fill="#606060"></path><path id="Path_6" data-name="Path 6" d="M376.231,19.133H374.9V17.174h1.331V14.8h2.412v2.374h1.922v1.959h-1.922v3.843a.9.9,0,0,0,1,1,2.068,2.068,0,0,0,1.055-.289v2.16a3.7,3.7,0,0,1-1.57.276,2.567,2.567,0,0,1-2.9-2.826Z" transform="translate(-328.139 -13.192)" fill="#606060"></path><path id="Path_7" data-name="Path 7" d="M432.088,41.23v-.465a3.519,3.519,0,0,1-2.135.628c-1.758,0-3.253-1.017-3.253-2.839,0-1.67,1.495-2.8,3.391-2.8a3.961,3.961,0,0,1,2,.515v-.641a1.293,1.293,0,0,0-1.432-1.356,1.255,1.255,0,0,0-1.294.829h-2.311a3.5,3.5,0,0,1,3.68-2.8c2.336,0,3.68,1.269,3.68,3.366v5.589h-2.324Zm0-3.014a1.735,1.735,0,0,0-1.583-.766c-.766,0-1.545.339-1.545,1.08,0,.766.779,1.08,1.545,1.08a1.709,1.709,0,0,0,1.583-.766Z" transform="translate(-373.433 -28.494)" fill="#606060"></path><path id="Path_8" data-name="Path 8" d="M502.479,14.007a3.037,3.037,0,0,1-2.2.917c-2.55,0-3.981-2.06-3.981-4.559s1.432-4.584,3.981-4.584a3.037,3.037,0,0,1,2.2.917V2h2.449V14.736h-2.449Zm0-5.087A1.852,1.852,0,0,0,500.834,7.9c-1.319,0-2.1,1.055-2.1,2.474a2.171,2.171,0,0,0,2.1,2.449,1.8,1.8,0,0,0,1.645-1.017Z" transform="translate(-434.291 -2)" fill="#606060"></path><path id="Path_9" data-name="Path 9" d="M582.339,38.192a3.581,3.581,0,0,1-3.881,3.052c-2.55,0-4.258-1.859-4.258-4.559a4.26,4.26,0,0,1,4.208-4.584c2.562,0,3.982,1.784,3.982,4.346v.741h-5.84c.075,1.319.829,2.1,1.9,2.1a1.489,1.489,0,0,0,1.62-1.093Zm-5.727-2.462H580a1.537,1.537,0,0,0-1.57-1.645A1.8,1.8,0,0,0,576.611,35.73Z" transform="translate(-502.407 -28.319)" fill="#606060"></path><path id="Path_10" data-name="Path 10" d="M648.6,32.3h2.424v.8a3.115,3.115,0,0,1,2.349-1,2.921,2.921,0,0,1,3.09,3.228v5.727h-2.424V35.843a1.36,1.36,0,0,0-1.432-1.545,1.585,1.585,0,0,0-1.583,1.218v5.539H648.6Z" transform="translate(-567.463 -28.319)" fill="#606060"></path></g></g></g></svg>