<?xml version="1.0" encoding="utf-8"?>
<svg xmlns="http://www.w3.org/2000/svg" preserveAspectRatio="xMidYMid meet" viewBox="0 0 200 100" fill="none">
  <path opacity=".5" d="M129.797 57.867c-2.054 0-3.64 1.586-3.64 3.64 0 2.053 1.586 3.64 3.64 3.64 2.053 0 3.64-1.68 3.64-3.64.023-2.03-1.657-3.64-3.64-3.64zM38.12 35c-2.053 0-3.64 1.587-3.64 3.64s1.587 3.64 3.64 3.64a3.625 3.625 0 003.64-3.617C41.69 36.68 40.08 35 38.12 35z" fill="#8B91A3"/>
  <path d="M38.867 44.123h-7.35c-.537 0-.84.164-.98.84l-.467 2.194-.07.536c0 .234.07.84.91.84h2.497c-.234.91-3.104 14.747-3.104 14.747l-.07.537c0 .233.07.84.91.84h3.734c.606 0 .84-.234.98-.84l3.85-18.317c0 .07.07-.607.07-.607-.07-.326-.304-.77-.91-.77zm88.2-5.25l.233-.536c0-1.377-4.947-2.59-7.303-2.59-6.534 0-10.64 3.5-10.64 9.193 0 4.247 2.893 5.997 5.25 7.373l.233.07c1.82 1.074 3.5 2.054 3.5 4.037 0 3.103-2.59 3.57-4.177 3.57-2.053 0-3.873-.84-4.946-1.283-.537-.234-.77-.374-.98-.374-.467 0-.607.234-.77.467l-.07.07-1.517 2.893-.163.234-.234.536c0 1.284 5.39 2.59 7.817 2.59 6.603 0 11.013-3.943 11.013-9.73 0-2.193-.84-3.943-2.426-5.32-1.074-.84-2.194-1.516-3.197-2.123-1.983-1.143-3.5-2.053-3.5-3.803 0-2.054 1.517-3.267 4.037-3.267 1.82 0 3.336.84 4.34 1.283.536.234.77.374.98.374.466 0 .606-.234.77-.467l.07-.07 1.516-2.893c.024 0 .164-.234.164-.234zM54.99 36.517h-8.283c-.607 0-.91.163-1.144.84l-.536 2.59v.07l-.07.676c0 .677.77.677 1.073.677h.537c-1.54 7.233-4.574 21.583-4.574 21.583l-.07.677c0 .303.164.84.98.84h7.607c10.943 0 13.837-12.087 13.837-19.297-.024-5.693-3.22-8.656-9.357-8.656zm-4.177 23.1H48.62c.233-.91 3.64-17.477 3.803-18.154h1.284c2.963 0 4.48.677 4.48 4.247-.094 4.877-1.61 13.907-7.374 13.907zm36.82-23.1h-3.336c-.607 0-.91.163-1.144.84l-2.73 12.903c-.163.677-.303 1.517-.466 2.357-.164-.677-.374-1.447-.677-2.194l-4.247-13.136c-.233-.677-.373-.77-1.073-.77h-4.713c-.607 0-.91.163-1.144.84l-.536 2.59v.07l-.07.676c0 .677.77.677 1.073.677h.607c-1.517 7.21-4.55 21.583-4.55 21.583l-.07.677c0 .303.163.84.98.84h3.336c.607 0 .91-.163 1.144-.84l2.963-13.837.07-.303c.163-.607.233-1.283.373-1.82.164.537.304 1.073.467 1.68l4.55 14.35c.163.677.467.77 1.073.77h2.59c.677 0 .91-.233 1.074-.84l5.46-25.667.07-.676c-.07-.304-.234-.77-1.074-.77zm20.51 0h-15.12c-.606 0-.91.163-1.143.84l-.537 2.59v.07l-.07.676c0 .677.77.677 1.074.677h.606c-1.586 7.303-4.643 21.653-4.643 21.653l-.07.677c0 .303.163.84.98.84h13.207c.606 0 .91-.163 1.143-.84l.537-2.59v-.07l.07-.677c0-.676-.77-.676-1.074-.676h-8.05c.164-.84 1.377-6.604 1.517-7.21h6.533c.677 0 .91-.164 1.144-.84l.606-2.73.07-.537c0-.373-.303-.84-.98-.84h-6.23c.164-.77 1.144-5.39 1.284-5.927h7.513c.607 0 .84-.07 1.213-.676l1.377-2.66.07-.234.163-.536c-.116-.887-.56-.98-1.19-.98zm38.454 11.62c1.143 0 1.82.233 2.73.84.163.163.303.233.606.233a.805.805 0 00.677-.373c0-.07 1.587-2.66 1.587-2.66l.163-.537c0-.373-.303-.607-.677-.84-1.446-.91-3.033-1.377-5.016-1.377-2.66 0-5.157.84-6.837 2.427-2.8 2.497-4.48 6.837-4.48 11.177 0 5.086 2.893 8.12 7.677 8.12 1.89 0 5.763-.98 5.763-2.194l-.163-.536-.98-2.66c-.07-.07-.234-.374-.607-.374-.233 0-.467.07-.84.304-1.073.466-1.75.606-2.497.606-1.75 0-2.59-.91-2.59-2.8 0-2.893.84-5.926 2.287-7.91.677-.91 1.82-1.446 3.197-1.446zm22.4-4.014h-12.694c-.676 0-.84.304-.91.84l-.536 2.497-.07.607c0 .373.233.77.91.77h6.766A65824.534 65824.534 0 00151.38 60.62l-.607 2.66-.07.537c0 .373.234.77.98.77h13.907c.607 0 1.073-.234 1.143-.607.07-.163.677-3.197.677-3.43 0-.303-.163-.677-.91-.677h-8.12c1.143-1.213 10.943-11.55 10.943-11.55l.607-2.893c0-.07.07-.467.07-.467-.093-.233-.163-.84-1.003-.84z" fill="#8B91A3"/>
</svg>