<?xml version="1.0" encoding="UTF-8"?><svg id="Vrstva_2" xmlns="http://www.w3.org/2000/svg" viewBox="0 0 508.53 188.87"><defs><style>.cls-1{fill:#a1a1a1;}.cls-2{fill:#838383;}.cls-3{fill:#b3b3b3;}.cls-4{fill:#666666;}</style></defs><g id="Vrstva_1-2"><g><path d="m83.38,140.51l-16.59-41.24h11.37l10.69,29.45,10.86-29.45h11.37l-24.23,60.63h-11.29l7.81-19.39Z"/><path d="m120.52,139.45c-3.1-2.04-5.42-4.73-6.96-8.08-1.54-3.35-2.31-6.97-2.31-10.84s.77-7.46,2.31-10.84c1.54-3.38,3.85-6.11,6.91-8.19,3.07-2.08,6.81-3.12,11.22-3.12s8.03,1.06,11.2,3.16c3.17,2.11,5.55,5.23,7.13,9.36l-9.84,3.82c-.57-2.09-1.61-3.78-3.12-5.05-1.51-1.27-3.3-1.91-5.37-1.91-2.26,0-4.14.6-5.62,1.8-1.48,1.2-2.57,2.77-3.27,4.71-.69,1.94-1.04,4.02-1.04,6.26s.34,4.38,1.02,6.28c.68,1.9,1.76,3.42,3.24,4.58,1.49,1.16,3.38,1.74,5.67,1.74,2.04,0,3.82-.62,5.35-1.85,1.53-1.23,2.57-2.86,3.14-4.9l9.42,3.56c-1.41,3.96-3.69,7.04-6.83,9.25-3.14,2.21-6.8,3.31-10.99,3.31-4.41,0-8.17-1.02-11.27-3.05Z"/><path d="m157.59,99.27h10.1v3.09c0,.96,1.22,1.42,1.81.67.74-.97,1.64-1.8,2.69-2.51,2.12-1.43,4.41-2.14,6.87-2.14,1.44,0,2.85.25,4.22.76,1.37.51,2.55,1.27,3.54,2.29l-4.71,8.49c-1.44-.96-2.98-1.44-4.62-1.44s-3.3.54-4.82,1.63c-1.51,1.09-2.74,2.78-3.67,5.07-.93,2.29-1.4,5.15-1.4,8.57v17.9h-10.01v-42.39Z"/><path d="m196.66,139.51c-3.31-1.99-5.87-4.68-7.68-8.06-1.81-3.38-2.72-7.08-2.72-11.09s.91-7.66,2.72-11.01c1.81-3.35,4.37-6.02,7.68-8,3.31-1.98,7.09-2.97,11.33-2.97s8.02.99,11.33,2.97,5.87,4.65,7.68,8c1.81,3.35,2.72,7.02,2.72,11.01s-.91,7.71-2.72,11.09c-1.81,3.38-4.37,6.07-7.68,8.06-3.31,1.99-7.09,2.99-11.33,2.99s-8.02-1-11.33-2.99Zm17.52-7.72c1.64-1.2,2.84-2.8,3.61-4.79s1.15-4.21,1.15-6.64c0-3.79-.9-6.91-2.69-9.36-1.8-2.45-4.55-3.67-8.25-3.67-2.49,0-4.55.59-6.19,1.76-1.64,1.17-2.84,2.74-3.61,4.69-.77,1.95-1.15,4.14-1.15,6.58s.38,4.65,1.15,6.64c.76,1.99,1.97,3.59,3.61,4.79,1.64,1.2,3.7,1.8,6.19,1.8s4.56-.6,6.2-1.8Z"/><path d="m239.62,107.92h-6.8v-8.66h6.89c.53,0,.96-.43.96-.96v-4.72c0-2.66.62-4.95,1.84-6.87,1.23-1.92,2.88-3.39,4.94-4.39,2.06-1,4.31-1.51,6.75-1.51s5.08.58,7.68,1.74l-3.39,8.53c-1.16-.71-2.26-1.06-3.31-1.06-1.13,0-2.06.38-2.8,1.14-.73.77-1.1,1.92-1.1,3.48v3.66c0,.53.43.96.96.96h8.92v8.66h-8.92c-.53,0-.96.43-.96.96v32.77h-10.69v-32.77c0-.53-.43-.96-.96-.96Z"/><path d="m277.05,140.98c-1.99-1.02-3.52-2.47-4.58-4.35-1.06-1.88-1.59-4.11-1.59-6.68v-21.06c0-.53-.43-.96-.96-.96h-5.87v-8.66h6.04c.53,0,.96-.43.96-.96v-9.56l10.1-7.38v16.94c0,.53.43.96.96.96h9.73v8.66h-9.73c-.53,0-.96.43-.96.96v19.24c0,1.92.42,3.28,1.27,4.07.85.79,2.02,1.19,3.52,1.19.99,0,2.01-.15,3.05-.45,1.05-.3,1.99-.66,2.84-1.08v9.38c-.88.34-2.03.64-3.46.89-1.43.26-2.82.38-4.18.38-2.77,0-5.15-.51-7.15-1.53Z"/><path d="m374.74,99.27h10.27v42.39h-10.27v-42.39Z"/><path d="m397.32,99.27h10.27v2.42c0,.89,1.04,1.33,1.7.73,1.22-1.09,2.58-1.96,4.07-2.6,2.24-.96,4.48-1.44,6.75-1.44,3.51,0,6.41.84,8.72,2.5,2.31,1.67,3.99,3.85,5.05,6.55,1.06,2.7,1.59,5.62,1.59,8.76v25.46h-10.23v-24.14c0-2.86-.71-5.17-2.12-6.94-1.41-1.77-3.41-2.65-5.98-2.65-3.03,0-5.38.86-7.04,2.59-1.67,1.73-2.5,4.37-2.5,7.94v23.21h-10.27v-42.39Z"/><path d="m483.87,81.7v59.95h-9.63l-.24-2.41c-.08-.86-1.12-1.2-1.75-.6-1.1,1.05-2.37,1.88-3.81,2.49-2.16.92-4.49,1.38-6.98,1.38-3.85,0-7.16-1-9.93-2.99-2.77-1.99-4.87-4.67-6.3-8.02-1.43-3.35-2.14-7.04-2.14-11.05s.71-7.66,2.14-11.01c1.43-3.35,3.51-6.03,6.26-8.04,2.74-2.01,6.01-3.01,9.8-3.01,2.38,0,4.63.42,6.77,1.27,2.13.85,3.9,2.14,5.28,3.86v-21.81h10.52Zm-12.2,47.95c1.71-2.32,2.57-5.39,2.57-9.21s-.86-6.85-2.59-9.19c-1.73-2.33-4.29-3.5-7.68-3.5s-5.97,1.18-7.72,3.54c-1.75,2.36-2.63,5.41-2.63,9.15s.87,6.82,2.61,9.16c1.74,2.35,4.32,3.52,7.75,3.52s5.99-1.16,7.7-3.48Z"/><path class="cls-2" d="m498.13,130.45h10.4v11.2h-10.4v-11.2Z"/></g><path d="m0,99.27h10.44v2.02c0,1.14.9,1.24,1.55.62.97-.94,2.06-1.68,3.25-2.23,1.87-.86,3.86-1.29,5.98-1.29,5.18,0,9.15,2.49,11.92,7.47,1.58-2.52,3.61-4.39,6.07-5.62,2.46-1.23,5.12-1.85,7.98-1.85,3.45,0,6.35.84,8.7,2.5,2.35,1.67,4.09,3.85,5.24,6.55,1.15,2.7,1.72,5.62,1.72,8.76v25.46h-10.52v-24.14c0-2.91-.52-5.22-1.55-6.94-1.03-1.71-2.79-2.57-5.28-2.57-1.81,0-3.39.46-4.73,1.38-1.34.92-2.37,2.17-3.08,3.75-.71,1.58-1.06,3.32-1.06,5.22v23.29h-10.52v-24.31c0-2.89-.5-5.16-1.51-6.83-1-1.67-2.74-2.5-5.2-2.5-1.84,0-3.43.46-4.77,1.38-1.34.92-2.38,2.17-3.1,3.75-.72,1.58-1.08,3.32-1.08,5.22v23.29H0v-42.39Z"/><path d="m300.79,99.27h10.44v2.02c0,1.14.9,1.24,1.55.62.97-.94,2.06-1.68,3.25-2.23,1.87-.86,3.86-1.29,5.98-1.29,5.18,0,9.15,2.49,11.92,7.47,1.58-2.52,3.61-4.39,6.07-5.62,2.46-1.23,5.12-1.85,7.98-1.85,3.45,0,6.35.84,8.7,2.5,2.35,1.67,4.09,3.85,5.24,6.55,1.15,2.7,1.72,5.62,1.72,8.76v25.46h-10.52v-24.14c0-2.91-.52-5.22-1.55-6.94-1.03-1.71-2.79-2.57-5.28-2.57-1.81,0-3.39.46-4.73,1.38-1.34.92-2.37,2.17-3.08,3.75-.71,1.58-1.06,3.32-1.06,5.22v23.29h-10.52v-24.31c0-2.89-.5-5.16-1.51-6.83-1-1.67-2.74-2.5-5.2-2.5-1.84,0-3.43.46-4.77,1.38-1.34.92-2.38,2.17-3.1,3.75-.72,1.58-1.08,3.32-1.08,5.22v23.29h-10.44v-42.39Z"/><path class="cls-1" d="m99.1,9.02l-56.01,56.01h41.21s35.4-35.41,35.4-35.41h0c.64-.64,1.68-.64,2.32,0l20.6-20.61c-12-12-31.53-12-43.53,0"/><rect class="cls-2" x="130.96" y="13.85" width="29.14" height="37.32" transform="translate(19.63 112.43) rotate(-45)"/><polygon class="cls-2" points="256.07 65.03 220.66 29.62 241.27 9.02 297.28 65.03 256.07 65.03"/><path class="cls-1" d="m171.35,35.41c-.64.64-1.68.64-2.32,0l-20.6,20.6c5.81,5.81,13.54,9.02,21.76,9.02s15.95-3.2,21.76-9.02h0s26.39-26.39,26.39-26.39h0c.64-.64,1.68-.64,2.32,0l20.6-20.6c-12-12-31.53-12-43.53,0"/><line class="cls-1" x1="197.74" y1="9.02" x2="171.35" y2="35.41"/><polygon class="cls-4" points="424.22 65.03 388.82 29.62 409.42 9.02 465.43 65.03 424.22 65.03"/><polygon class="cls-4" points="301.77 0 337.18 35.41 316.57 56.01 260.56 0 301.77 0"/><line class="cls-3" x1="365.89" y1="9.02" x2="339.5" y2="35.41"/><path class="cls-3" d="m339.5,35.41c-.64.64-1.68.64-2.32,0l-20.6,20.6c5.81,5.81,13.54,9.02,21.77,9.02s15.95-3.2,21.76-9.02h0s26.39-26.39,26.39-26.39h0c.64-.64,1.68-.64,2.32,0l20.6-20.6c-12-12-31.53-12-43.53,0"/><g><path d="m186.27,166.79h2.45v2.16h.06c.06-.19.21-.44.45-.73.24-.29.55-.57.93-.83.38-.26.83-.48,1.34-.67s1.09-.28,1.71-.28c1.03,0,1.9.21,2.6.64.7.43,1.27,1.07,1.72,1.93.45-.86,1.08-1.5,1.9-1.93.82-.43,1.65-.64,2.48-.64,1.07,0,1.95.18,2.63.53.68.35,1.22.81,1.61,1.39.39.58.66,1.23.8,1.96.14.73.22,1.49.22,2.27v8.06h-2.63v-7.71c0-.53-.04-1.03-.1-1.52-.07-.49-.21-.92-.42-1.29-.22-.37-.52-.67-.91-.89-.39-.23-.91-.34-1.55-.34-1.26,0-2.17.39-2.71,1.17-.55.78-.82,1.78-.82,3.01v7.57h-2.63v-7.24c0-.66-.04-1.27-.1-1.81-.07-.55-.2-1.02-.41-1.42s-.5-.71-.88-.93c-.38-.23-.89-.34-1.53-.34-.47,0-.92.09-1.36.28-.44.19-.82.46-1.16.83-.33.37-.59.84-.79,1.42-.19.58-.29,1.25-.29,2.03v7.19h-2.63v-13.85Z"/><path d="m213.14,174.68c0,.6.13,1.16.39,1.65.26.49.61.92,1.04,1.27.43.35.92.62,1.49.82.56.19,1.15.29,1.75.29.82,0,1.53-.19,2.13-.57.6-.38,1.16-.88,1.67-1.5l1.98,1.52c-1.46,1.89-3.5,2.83-6.13,2.83-1.09,0-2.08-.18-2.96-.55-.89-.37-1.64-.88-2.25-1.53-.61-.65-1.08-1.42-1.42-2.31-.33-.89-.49-1.84-.49-2.88s.18-1.99.54-2.88c.36-.88.86-1.65,1.49-2.31.63-.65,1.39-1.16,2.26-1.53.87-.37,1.83-.56,2.86-.56,1.23,0,2.26.21,3.11.64.85.43,1.54.99,2.09,1.68.55.69.94,1.47,1.18,2.34.24.87.37,1.75.37,2.64v.93h-11.1Zm8.3-2.1c-.02-.58-.11-1.12-.28-1.61-.16-.49-.41-.91-.74-1.27-.33-.36-.74-.64-1.24-.85s-1.08-.31-1.74-.31-1.23.12-1.77.36c-.53.24-.99.56-1.36.95-.37.39-.66.82-.86,1.3-.2.48-.31.95-.31,1.42h8.3Z"/><path d="m227.39,166.79h2.45v2.16h.06c.06-.19.21-.44.45-.73.24-.29.55-.57.93-.83.38-.26.83-.48,1.34-.67s1.09-.28,1.71-.28c1.03,0,1.9.21,2.6.64.7.43,1.27,1.07,1.72,1.93.45-.86,1.08-1.5,1.9-1.93.82-.43,1.65-.64,2.48-.64,1.07,0,1.95.18,2.63.53.68.35,1.22.81,1.61,1.39.39.58.66,1.23.8,1.96.14.73.22,1.49.22,2.27v8.06h-2.63v-7.71c0-.53-.04-1.03-.1-1.52-.07-.49-.21-.92-.42-1.29-.22-.37-.52-.67-.91-.89-.39-.23-.91-.34-1.55-.34-1.26,0-2.17.39-2.71,1.17-.55.78-.82,1.78-.82,3.01v7.57h-2.63v-7.24c0-.66-.04-1.27-.1-1.81-.07-.55-.2-1.02-.41-1.42s-.5-.71-.88-.93c-.38-.23-.89-.34-1.53-.34-.47,0-.92.09-1.36.28-.44.19-.82.46-1.16.83-.33.37-.59.84-.79,1.42-.19.58-.29,1.25-.29,2.03v7.19h-2.63v-13.85Z"/><path d="m252.28,158.55h2.63v10.22h.06c.47-.72,1.14-1.29,2.02-1.71s1.81-.63,2.8-.63c1.07,0,2.04.19,2.9.56.87.37,1.61.88,2.22,1.53.61.65,1.09,1.42,1.42,2.31.33.89.5,1.85.5,2.88s-.17,1.98-.5,2.86-.8,1.64-1.42,2.31c-.61.66-1.35,1.18-2.22,1.55-.87.37-1.84.55-2.9.55-.94,0-1.85-.2-2.73-.61-.89-.41-1.58-.98-2.09-1.72h-.06v1.99h-2.63v-22.08Zm7.18,19.98c.7,0,1.33-.12,1.9-.36.57-.24,1.04-.58,1.43-.99s.69-.92.91-1.52.32-1.24.32-1.94-.11-1.35-.32-1.94-.52-1.1-.91-1.52-.87-.75-1.43-.99c-.57-.24-1.2-.37-1.9-.37s-1.33.12-1.9.37c-.57.24-1.04.58-1.43.99-.39.42-.69.92-.91,1.52-.22.59-.32,1.24-.32,1.94s.1,1.35.32,1.94c.21.59.52,1.1.91,1.52.39.42.87.75,1.43.99.56.24,1.2.36,1.9.36Z"/><path d="m272.11,174.68c0,.6.13,1.16.39,1.65.26.49.61.92,1.04,1.27.43.35.92.62,1.49.82.56.19,1.15.29,1.75.29.82,0,1.53-.19,2.13-.57.6-.38,1.16-.88,1.67-1.5l1.98,1.52c-1.46,1.89-3.5,2.83-6.13,2.83-1.09,0-2.08-.18-2.96-.55-.89-.37-1.64-.88-2.25-1.53-.61-.65-1.08-1.42-1.42-2.31-.33-.89-.49-1.84-.49-2.88s.18-1.99.54-2.88c.36-.88.86-1.65,1.49-2.31.63-.65,1.39-1.16,2.26-1.53.87-.37,1.83-.56,2.86-.56,1.23,0,2.26.21,3.11.64.85.43,1.54.99,2.09,1.68.55.69.94,1.47,1.18,2.34.24.87.37,1.75.37,2.64v.93h-11.1Zm8.3-2.1c-.02-.58-.11-1.12-.28-1.61-.16-.49-.41-.91-.74-1.27-.33-.36-.74-.64-1.24-.85s-1.08-.31-1.74-.31-1.23.12-1.77.36c-.53.24-.99.56-1.36.95-.37.39-.66.82-.86,1.3-.2.48-.31.95-.31,1.42h8.3Z"/><path d="m286.36,166.79h2.63v2.13h.06c.18-.37.41-.71.7-1.01s.62-.56.98-.77c.36-.21.75-.39,1.18-.51s.86-.19,1.29-.19.82.06,1.17.18l-.12,2.83c-.21-.06-.43-.11-.64-.15-.21-.04-.43-.06-.64-.06-1.29,0-2.27.36-2.95,1.08-.68.72-1.02,1.84-1.02,3.36v6.95h-2.63v-13.85Z"/><path d="m304.62,173.71c0-1.01.19-1.96.57-2.83.38-.88.9-1.64,1.56-2.31s1.44-1.18,2.34-1.56c.9-.38,1.86-.57,2.89-.57s1.99.19,2.89.57c.9.38,1.67.9,2.34,1.56.66.66,1.18,1.43,1.56,2.31.38.87.57,1.82.57,2.83s-.19,1.96-.57,2.85c-.38.89-.9,1.65-1.56,2.31-.66.65-1.44,1.17-2.34,1.55s-1.86.57-2.89.57-2-.19-2.89-.57-1.68-.9-2.34-1.55c-.66-.65-1.18-1.42-1.56-2.31-.38-.89-.57-1.84-.57-2.85Zm2.8,0c0,.7.11,1.35.32,1.94s.52,1.1.91,1.52c.39.42.87.75,1.43.99.56.24,1.2.36,1.9.36s1.33-.12,1.9-.36c.57-.24,1.04-.58,1.43-.99s.69-.92.91-1.52.32-1.24.32-1.94-.11-1.35-.32-1.94-.52-1.1-.91-1.52-.87-.75-1.43-.99c-.56-.24-1.2-.37-1.9-.37s-1.34.12-1.9.37c-.57.24-1.04.58-1.43.99-.39.42-.69.92-.91,1.52s-.32,1.24-.32,1.94Z"/><path d="m323.66,169.07h-2.98v-2.28h2.98v-3.09c0-1.85.35-3.23,1.06-4.13s1.93-1.36,3.67-1.36c.29,0,.6,0,.92.03.32.02.67.08,1.04.18l-.29,2.34c-.25-.1-.5-.17-.73-.2-.24-.04-.49-.06-.76-.06-.49,0-.88.07-1.17.22-.29.15-.52.36-.69.63-.17.27-.27.6-.32.98-.05.38-.07.81-.07,1.3v3.18h3.13v2.28h-3.15v11.57h-2.63v-11.57Z"/><path d="m345.48,162.58h-6.66v-2.63h16.12v2.63h-6.66v18.05h-2.8v-18.05Z"/><path d="m362.24,162.58h-6.66v-2.63h16.12v2.63h-6.66v18.05h-2.8v-18.05Z"/><path d="m389.09,164.42c-.58-.76-1.32-1.34-2.22-1.75s-1.82-.61-2.77-.61c-1.17,0-2.22.22-3.17.66-.95.44-1.75,1.04-2.42,1.8-.67.76-1.19,1.65-1.56,2.67-.37,1.02-.55,2.12-.55,3.29,0,1.09.18,2.12.53,3.09.35.97.86,1.83,1.52,2.57.66.74,1.47,1.32,2.42,1.75s2.03.64,3.24.64,2.23-.24,3.13-.73c.89-.49,1.65-1.17,2.28-2.04l2.37,1.78c-.16.22-.43.52-.82.92-.39.4-.9.8-1.55,1.2-.64.4-1.42.75-2.32,1.05s-1.95.45-3.14.45c-1.64,0-3.11-.31-4.42-.93s-2.43-1.44-3.36-2.45c-.93-1.01-1.63-2.16-2.12-3.43-.49-1.28-.73-2.56-.73-3.87,0-1.6.26-3.07.79-4.43.53-1.35,1.26-2.52,2.21-3.5.94-.98,2.08-1.75,3.4-2.29,1.32-.54,2.78-.82,4.38-.82,1.36,0,2.7.26,4.01.79s2.39,1.33,3.23,2.42l-2.34,1.78Z"/><path d="m420.98,169.07v10.19c-.51.31-1.08.58-1.72.82-.64.23-1.31.43-2,.6-.69.17-1.39.29-2.1.37s-1.38.12-2,.12c-1.75,0-3.32-.29-4.69-.87-1.37-.58-2.53-1.37-3.48-2.37s-1.66-2.15-2.16-3.46-.74-2.7-.74-4.16c0-1.54.27-2.97.8-4.29.54-1.32,1.28-2.47,2.22-3.45.95-.97,2.08-1.74,3.4-2.29,1.32-.55,2.77-.83,4.35-.83,1.91,0,3.47.24,4.67.72s2.22,1.13,3.04,1.97l-1.99,2.13c-.86-.82-1.76-1.39-2.72-1.71-.95-.32-1.96-.48-3.01-.48-1.19,0-2.26.22-3.21.66-.95.44-1.77,1.03-2.45,1.77s-1.21,1.61-1.58,2.61c-.37,1-.55,2.07-.55,3.2s.2,2.25.61,3.26.97,1.88,1.69,2.61c.72.74,1.57,1.32,2.54,1.74.97.42,2.03.63,3.18.63.99,0,1.93-.09,2.82-.28.89-.19,1.64-.45,2.26-.8v-5.75h-4.59v-2.63h7.39Z"/><path d="m425.42,166.79h2.63v2.13h.06c.18-.37.41-.71.7-1.01s.62-.56.98-.77c.36-.21.75-.39,1.18-.51s.86-.19,1.29-.19.82.06,1.17.18l-.12,2.83c-.21-.06-.43-.11-.64-.15-.21-.04-.43-.06-.64-.06-1.29,0-2.27.36-2.95,1.08-.68.72-1.02,1.84-1.02,3.36v6.95h-2.63v-13.85Z"/><path d="m435.03,173.71c0-1.01.19-1.96.57-2.83.38-.88.9-1.64,1.56-2.31s1.44-1.18,2.34-1.56c.9-.38,1.86-.57,2.89-.57s1.99.19,2.89.57c.9.38,1.67.9,2.34,1.56.66.66,1.18,1.43,1.56,2.31.38.87.57,1.82.57,2.83s-.19,1.96-.57,2.85c-.38.89-.9,1.65-1.56,2.31-.66.65-1.44,1.17-2.34,1.55s-1.86.57-2.89.57-2-.19-2.89-.57-1.68-.9-2.34-1.55c-.66-.65-1.18-1.42-1.56-2.31-.38-.89-.57-1.84-.57-2.85Zm2.8,0c0,.7.11,1.35.32,1.94s.52,1.1.91,1.52c.39.42.87.75,1.43.99.56.24,1.2.36,1.9.36s1.33-.12,1.9-.36c.57-.24,1.04-.58,1.43-.99s.69-.92.91-1.52.32-1.24.32-1.94-.11-1.35-.32-1.94-.52-1.1-.91-1.52-.87-.75-1.43-.99c-.56-.24-1.2-.37-1.9-.37s-1.34.12-1.9.37c-.57.24-1.04.58-1.43.99-.39.42-.69.92-.91,1.52s-.32,1.24-.32,1.94Z"/><path d="m465.32,180.64h-2.63v-2.13h-.06c-.33.74-.91,1.34-1.72,1.8-.82.46-1.76.68-2.83.68-.68,0-1.32-.1-1.93-.31s-1.13-.52-1.59-.95c-.46-.43-.82-.98-1.09-1.65-.27-.67-.41-1.47-.41-2.38v-8.91h2.63v8.18c0,.64.09,1.19.26,1.65.18.46.41.83.7,1.11.29.28.63.49,1.01.61.38.13.77.19,1.18.19.54,0,1.05-.09,1.52-.26.47-.18.87-.45,1.23-.83.35-.38.62-.86.82-1.45s.29-1.27.29-2.07v-7.13h2.63v13.85Z"/><path d="m469.29,166.79h2.63v1.99h.06c.51-.74,1.2-1.31,2.09-1.72.88-.41,1.79-.61,2.73-.61,1.07,0,2.04.19,2.9.56.87.37,1.61.88,2.22,1.55.61.66,1.09,1.44,1.42,2.32s.5,1.84.5,2.85-.17,1.99-.5,2.88-.8,1.65-1.42,2.31c-.61.65-1.35,1.16-2.22,1.53-.87.37-1.84.55-2.9.55-.99,0-1.93-.21-2.8-.63s-1.55-.99-2.02-1.71h-.06v10.22h-2.63v-22.08Zm7.18,2.1c-.7,0-1.33.12-1.9.37-.57.24-1.04.58-1.43.99-.39.42-.69.92-.91,1.52-.22.59-.32,1.24-.32,1.94s.1,1.35.32,1.94c.21.59.52,1.1.91,1.52.39.42.87.75,1.43.99.56.24,1.2.36,1.9.36s1.33-.12,1.9-.36c.57-.24,1.04-.58,1.43-.99s.69-.92.91-1.52.32-1.24.32-1.94-.11-1.35-.32-1.94-.52-1.1-.91-1.52-.87-.75-1.43-.99c-.57-.24-1.2-.37-1.9-.37Z"/></g></g></svg>